<svg width="25" height="25" viewBox="0 0 25 25" fill="none" xmlns="http://www.w3.org/2000/svg">
<path d="M21.9274 2.59148C21.4274 2.08048 20.6874 1.89148 19.9974 2.09148L3.90742 6.74048C3.17942 6.94248 2.66342 7.51948 2.52442 8.25148C2.38242 8.99748 2.87842 9.94548 3.52642 10.3415L8.55742 13.4135C9.07342 13.7295 9.73942 13.6505 10.1664 13.2225L15.9274 7.46148C16.2174 7.16048 16.6974 7.16048 16.9874 7.46148C17.2774 7.75048 17.2774 8.22148 16.9874 8.52148L11.2164 14.2825C10.7884 14.7105 10.7084 15.3745 11.0234 15.8915L14.0974 20.9415C14.4574 21.5405 15.0774 21.8815 15.7574 21.8815C15.8374 21.8815 15.9274 21.8815 16.0074 21.8705C16.7874 21.7715 17.4074 21.2405 17.6374 20.4905L22.4074 4.52148C22.6174 3.84148 22.4274 3.10148 21.9274 2.59148Z" fill="white"/>
<path opacity="0.4" d="M9.95139 19.1555C10.2434 19.4485 10.2434 19.9235 9.95139 20.2165L8.58539 21.5815C8.43939 21.7285 8.24739 21.8015 8.05539 21.8015C7.86339 21.8015 7.67139 21.7285 7.52539 21.5815C7.23239 21.2885 7.23239 20.8145 7.52539 20.5215L8.89039 19.1555C9.18339 18.8635 9.65839 18.8635 9.95139 19.1555ZM9.16769 15.3675C9.45969 15.6605 9.45969 16.1355 9.16769 16.4285L7.80169 17.7935C7.65569 17.9405 7.46369 18.0135 7.27169 18.0135C7.07969 18.0135 6.88769 17.9405 6.74169 17.7935C6.44869 17.5005 6.44869 17.0265 6.74169 16.7335L8.10669 15.3675C8.39969 15.0755 8.87469 15.0755 9.16769 15.3675ZM5.40649 14.1751C5.69849 14.4681 5.69849 14.9431 5.40649 15.2361L4.04049 16.6011C3.89449 16.7481 3.70249 16.8211 3.51049 16.8211C3.31849 16.8211 3.12649 16.7481 2.98049 16.6011C2.68749 16.3081 2.68749 15.8341 2.98049 15.5411L4.34549 14.1751C4.63849 13.8831 5.11349 13.8831 5.40649 14.1751Z" fill="white"/>
</svg>
